# xmcd CD database file
#
# Track frame offsets:
#	150
#	15000
#	29851
#	50643
#	71503
#	85753
#	100003
#	117330
#	134655
#	147555
#	160455
#	179206
#	197956
#	221432
#	244906
#	258031
#	271156
#	285857
#	300557
#	318108
#	335659
#
# Disc length: 4494 seconds
#
# Revision: 0
# Processed by: cddbd v1.5.2PL0 Copyright (c) Steve Scherf et al.
# Submitted via: CDex 1.51
#
DISCID=38118c15
DTITLE=Mark Taylor - Hal Leonard - Vol 47 - Classic Jazz Ballads 10 Favorite Songs
DYEAR=1900
DGENRE=Jazz
TTITLE0=Blame It on My Youth Split
TTITLE1=Blame It on My Youth Stereo
TTITLE2=It Might as Well Be Spring Split
TTITLE3=It Might as Well Be Spring Stereo
TTITLE4=It's Easy to Remember Split
TTITLE5=It's Easy to Remember Stereo
TTITLE6=June in January Split
TTITLE7=June in January Stereo
TTITLE8=Love Letters Split
TTITLE9=Love Letters Stereo
TTITLE10=More Than You Know Split
TTITLE11=More Than You Know Stereo
TTITLE12=A Nightingale Sang Split
TTITLE13=A Nightingale Sang Stereo
TTITLE14=Some Enchanted Evening Split
TTITLE15=Some Enchanted Evening Stereo
TTITLE16=When I Fall in Love Split
TTITLE17=When I Fall in Love Stereo
TTITLE18=You Don't Know What Love Is Split
TTITLE19=You Don't Know What Love Is Stereo
TTITLE20=Bb Tuning Notes
EXTD=
EXTT0=
EXTT1=
EXTT2=
EXTT3=
EXTT4=
EXTT5=
EXTT6=
EXTT7=
EXTT8=
EXTT9=
EXTT10=
EXTT11=
EXTT12=
EXTT13=
EXTT14=
EXTT15=
EXTT16=
EXTT17=
EXTT18=
EXTT19=
EXTT20=
PLAYORDER=
